<?xml version="1.0" standalone="no"?><!DOCTYPE svg PUBLIC "-//W3C//DTD SVG 1.1//EN" "http://www.w3.org/Graphics/SVG/1.1/DTD/svg11.dtd"><svg t="1548128407066" class="icon" style="" viewBox="0 0 1024 1024" version="1.1" xmlns="http://www.w3.org/2000/svg" p-id="1073" xmlns:xlink="http://www.w3.org/1999/xlink" width="200" height="200"><defs><style type="text/css"></style></defs><path d="M372.622222 746.666667c-105.244444 0-192-86.755556-192-192s86.755556-192 192-192c36.977778 0 72.533333 9.955556 103.822222 29.866666 12.8 8.533333 17.066667 25.6 8.533334 39.822223-8.533333 12.8-25.6 17.066667-39.822222 8.533333-21.333333-14.222222-46.933333-21.333333-72.533334-21.333333-73.955556 0-135.111111 61.155556-135.111111 135.111111s61.155556 135.111111 135.111111 135.111111 135.111111-61.155556 135.111111-135.111111c0-15.644444 12.8-28.444444 28.444445-28.444445s28.444444 12.8 28.444444 28.444445c0 105.244444-86.755556 192-192 192z" fill="#e6e6e6" p-id="1074"></path><path d="M699.733333 746.666667c-39.822222 0-78.222222-11.377778-109.511111-34.133334-12.8-8.533333-15.644444-27.022222-7.111111-39.822222 8.533333-12.8 27.022222-15.644444 39.822222-7.111111 22.755556 15.644444 49.777778 24.177778 76.8 24.177778 73.955556 0 135.111111-61.155556 135.111111-135.111111s-61.155556-135.111111-135.111111-135.111111-135.111111 61.155556-135.111111 135.111111c0 15.644444-12.8 28.444444-28.444444 28.444444s-28.444444-12.8-28.444445-28.444444c0-105.244444 86.755556-192 192-192s192 85.333333 192 192c0 105.244444-86.755556 192-192 192z" fill="#e6e6e6" p-id="1075"></path></svg>